<svg width="187" height="84" viewBox="0 0 187 84" fill="none" xmlns="http://www.w3.org/2000/svg">
<path d="M6.06 45.1L5.46 45.7L4.86 45.4L4.62 45.1V44.56L4.02 44.8H3.72C3.6 44.8 3.46 44.72 3.3 44.56C3.22 44.48 3.16 44.38 3.12 44.26C3.16 44.1 3.22 43.94 3.3 43.78C3.38 43.66 3.44 43.54 3.48 43.42C3.56 43.26 3.64 43.14 3.72 43.06L4.02 42.82L4.86 43.06L5.76 42.22H6.06L6.36 42.52L6.6 43.06V43.66L6.9 44.26L7.2 45.4H8.34L8.94 45.1L9.24 45.4L8.94 45.7L8.34 46H7.2L6.6 45.7L6.06 45.1ZM11.28 44.8H11.52L11.82 45.1V45.7L11.52 46L11.28 45.7V44.8ZM13.26 44.56L13.86 45.1L13.56 45.4L13.26 45.1V44.56ZM14.16 43.36L13.56 43.66H12.12L11.52 43.96H10.68L9.54 42.82V42.52L9.78 41.92L9.24 41.62L8.64 41.08V40.48L8.94 40.18H9.24L10.08 41.08L10.98 41.38L11.82 41.92H12.42C12.54 41.92 12.72 41.88 12.96 41.8C13.08 41.76 13.18 41.7 13.26 41.62V41.38H13.02L12.72 41.08V40.78L13.86 39.64V39.34L13.56 39.04H13.26L12.42 39.88L11.82 40.18H10.38C10.38 40.02 10.54 39.8 10.86 39.52C11.18 39.2 11.4 39.04 11.52 39.04H12.42L12.72 38.74L13.02 38.14L13.56 37.6H14.16C14 37.6 13.86 37.5 13.74 37.3C13.62 37.06 13.56 36.86 13.56 36.7C13.6 36.54 13.66 36.38 13.74 36.22C13.9 35.9 14.04 35.68 14.16 35.56L14.76 34.96C14.84 34.96 15 34.92 15.24 34.84C15.36 34.8 15.48 34.74 15.6 34.66L16.2 34.96L16.44 35.26C16.6 35.1 16.9 34.92 17.34 34.72C17.78 34.52 18.06 34.42 18.18 34.42H19.92C20.08 34.42 20.26 34.52 20.46 34.72C20.7 34.92 20.82 35.1 20.82 35.26V37C20.82 37.08 20.72 37.22 20.52 37.42C20.4 37.5 20.3 37.56 20.22 37.6C20.14 37.56 20.04 37.52 19.92 37.48C19.84 37.44 19.74 37.4 19.62 37.36C19.54 37.32 19.46 37.3 19.38 37.3L18.78 37L18.48 36.7L18.78 36.16V35.86H18.48L17.94 36.16C17.86 36.2 17.8 36.26 17.76 36.34C17.68 36.5 17.64 36.62 17.64 36.7L17.34 37.6C17.34 37.68 17.3 37.78 17.22 37.9C17.18 38.02 17.12 38.14 17.04 38.26C16.92 38.42 16.82 38.58 16.74 38.74C16.58 38.9 16.34 39.2 16.02 39.64C15.7 40.04 15.46 40.32 15.3 40.48L16.2 40.78C16.32 40.78 16.54 40.94 16.86 41.26C17.18 41.54 17.34 41.76 17.34 41.92L17.04 42.82L16.74 43.36L16.2 43.9C16.08 44.02 15.98 44.14 15.9 44.26L15.3 43.96L15 44.56L14.76 44.8H14.46V43.36H14.16ZM7.5 42.82L6.9 42.52V42.22L7.26 42.1C7.34 42.06 7.42 42.02 7.5 41.98C7.62 41.94 7.72 41.92 7.8 41.92H8.1C8.18 41.92 8.26 41.94 8.34 41.98C8.42 42.02 8.5 42.06 8.58 42.1L8.94 42.22V42.82L9.54 43.66C9.5 43.78 9.44 43.88 9.36 43.96C9.24 44.16 9.1 44.26 8.94 44.26L8.34 43.96L7.8 44.26C7.64 44.26 7.44 44.16 7.2 43.96C7 43.72 6.9 43.52 6.9 43.36L7.5 42.82ZM2.28 42.22C2.36 41.98 2.46 41.78 2.58 41.62C2.66 41.46 2.72 41.3 2.76 41.14C2.84 40.98 2.88 40.86 2.88 40.78V40.48L1.98 39.64V39.34H1.44L0.84 39.64L0.54 39.34V37C0.54 36.84 0.58 36.66 0.66 36.46C0.78 36.22 0.84 36.02 0.84 35.86L1.14 35.56V35.26L0.84 34.66V34.12C0.92 33.6 1.06 32.68 1.26 31.36C1.5 30 1.74 28.56 1.98 27.04C2.26 25.48 2.5 24.04 2.7 22.72C2.9 21.36 3.04 20.42 3.12 19.9C3.2 19.7 3.28 19.32 3.36 18.76C3.48 18.16 3.6 17.52 3.72 16.84C3.84 16.16 3.94 15.52 4.02 14.92C4.14 14.28 4.24 13.82 4.32 13.54L4.44 13.06C4.48 12.94 4.52 12.82 4.56 12.7C4.6 12.58 4.62 12.48 4.62 12.4C4.62 12.28 4.66 12.1 4.74 11.86L4.86 11.5C4.86 11.34 4.96 11.12 5.16 10.84C5.24 10.68 5.34 10.52 5.46 10.36C5.62 10.2 5.84 9.88 6.12 9.4C6.28 9.16 6.44 8.9 6.6 8.62L8.64 6.58C8.8 6.42 9 6.24 9.24 6.04C9.48 5.84 9.66 5.74 9.78 5.74C9.94 5.74 10.28 5.58 10.8 5.26C11.36 4.94 11.8 4.7 12.12 4.54L12.48 4.42C12.56 4.38 12.64 4.34 12.72 4.3C12.84 4.26 12.94 4.24 13.02 4.24C13.1 4.24 13.2 4.24 13.32 4.24C13.44 4.2 13.6 4.16 13.8 4.12C13.96 4.08 14.18 4.04 14.46 4H16.74C17.06 4 17.54 4.04 18.18 4.12C18.82 4.2 19.22 4.24 19.38 4.24C19.46 4.24 19.6 4.3 19.8 4.42C20.04 4.5 20.28 4.6 20.52 4.72C20.8 4.84 21.04 4.98 21.24 5.14C21.44 5.26 21.58 5.36 21.66 5.44L23.7 7.48C23.82 7.76 23.94 8.02 24.06 8.26C24.14 8.46 24.22 8.66 24.3 8.86C24.42 9.02 24.52 9.14 24.6 9.22L24.84 10.06C24.84 10.14 24.84 10.28 24.84 10.48C24.88 10.64 24.92 10.82 24.96 11.02C25 11.26 25.06 11.52 25.14 11.8C25.06 12.16 25 12.48 24.96 12.76C24.92 13.04 24.88 13.3 24.84 13.54C24.84 13.78 24.84 13.98 24.84 14.14C24.84 14.3 24.8 14.58 24.72 14.98C24.68 15.18 24.64 15.38 24.6 15.58L24.3 15.88H24L23.1 15.58H22.86C22.7 15.58 22.36 15.64 21.84 15.76C21.32 15.84 20.98 15.88 20.82 15.88H18.18L17.64 15.28L17.34 14.68V12.64L17.04 12.1L16.74 11.8H13.26C13.18 11.92 13.08 12.04 12.96 12.16C12.88 12.24 12.78 12.32 12.66 12.4C12.58 12.48 12.5 12.56 12.42 12.64L12.12 13.24L11.82 14.14C11.82 14.22 11.78 14.38 11.7 14.62C11.66 14.86 11.6 15.12 11.52 15.4C11.48 15.68 11.42 15.96 11.34 16.24C11.3 16.48 11.28 16.64 11.28 16.72L10.98 17.32V18.76C10.98 18.84 10.96 19.02 10.92 19.3C10.88 19.58 10.82 19.9 10.74 20.26C10.7 20.62 10.64 20.98 10.56 21.34C10.52 21.7 10.46 22 10.38 22.24L10.08 23.68C10.08 23.84 10.02 24.14 9.9 24.58C9.82 24.98 9.78 25.26 9.78 25.42C9.78 25.58 9.74 25.8 9.66 26.08C9.62 26.36 9.56 26.66 9.48 26.98C9.44 27.26 9.38 27.54 9.3 27.82C9.26 28.06 9.24 28.22 9.24 28.3L8.94 28.6H8.1V29.2H8.34L8.64 29.5C8.68 29.58 8.72 29.68 8.76 29.8C8.8 29.88 8.84 29.98 8.88 30.1C8.92 30.18 8.94 30.26 8.94 30.34V30.64C8.94 30.8 8.88 31.1 8.76 31.54C8.68 31.94 8.64 32.22 8.64 32.38C8.64 32.46 8.62 32.56 8.58 32.68C8.54 32.8 8.5 32.92 8.46 33.04L8.34 33.52L8.1 34.12V35.26C8.1 35.42 8.08 35.64 8.04 35.92C8 36.16 7.96 36.4 7.92 36.64C7.88 36.96 7.84 37.28 7.8 37.6L7.5 37.9C7.34 37.9 7.14 37.8 6.9 37.6C6.7 37.36 6.6 37.16 6.6 37V36.4H5.76V35.26L5.16 34.66V37.3L5.46 37.6H6.36L6.6 37.9L6.9 38.44L8.1 39.04L8.34 39.34L8.1 39.88V41.38L7.5 41.62L6.9 41.38H6.6L6.06 41.62H4.62L3.72 42.22C3.56 42.22 3.36 42.32 3.12 42.52C2.92 42.72 2.74 42.82 2.58 42.82L2.88 43.36V43.66H2.58C2.42 43.66 2.22 43.56 1.98 43.36C1.78 43.12 1.68 42.94 1.68 42.82L2.28 42.22ZM11.52 43.06V42.82L11.28 42.52H10.98L11.52 43.06ZM1.14 41.38L1.44 41.08L1.98 41.62L1.44 42.22L1.14 41.62V41.38ZM18.18 41.62V41.92L17.94 42.22V41.92L18.18 41.62ZM15.9 41.92C15.9 41.76 15.84 41.68 15.72 41.68C15.64 41.68 15.6 41.76 15.6 41.92C15.6 42.08 15.64 42.16 15.72 42.16C15.84 42.16 15.9 42.08 15.9 41.92ZM14.46 41.38C14.3 41.38 14.22 41.48 14.22 41.68C14.22 41.84 14.3 41.92 14.46 41.92C14.62 41.92 14.7 41.84 14.7 41.68C14.7 41.48 14.62 41.38 14.46 41.38ZM15.3 41.38C15.14 41.38 15.06 41.48 15.06 41.68C15.06 41.84 15.14 41.92 15.3 41.92C15.46 41.92 15.54 41.84 15.54 41.68C15.54 41.48 15.46 41.38 15.3 41.38ZM17.94 40.18H19.08V40.48L18.78 40.78H17.04V39.88L17.94 40.18ZM6.6 40.18C6.48 40.18 6.42 40.24 6.42 40.36C6.42 40.44 6.48 40.48 6.6 40.48C6.76 40.48 6.84 40.44 6.84 40.36C6.84 40.24 6.76 40.18 6.6 40.18ZM3.42 40.18H3.72L4.02 39.88H3.42V40.18ZM4.62 39.64H4.86L5.46 39.34H6.06V39.04L5.46 38.44L4.86 38.14V39.04L4.62 39.64ZM10.38 39.04C10.54 39.04 10.62 39.1 10.62 39.22C10.62 39.3 10.54 39.34 10.38 39.34C10.22 39.34 10.14 39.3 10.14 39.22C10.14 39.1 10.22 39.04 10.38 39.04ZM15 39.34V39.04H14.76L15 39.34ZM18.18 39.34C18.18 39.5 18.14 39.58 18.06 39.58C17.98 39.58 17.94 39.5 17.94 39.34C17.94 39.18 17.98 39.1 18.06 39.1C18.14 39.1 18.18 39.18 18.18 39.34ZM19.68 39.34H19.38V39.04L19.68 39.34ZM3.72 39.04L4.02 38.74V38.44H3.72V39.04ZM1.44 38.44H1.68L1.98 38.14V37.6H1.14L1.44 37.9V38.44ZM2.58 36.4L2.88 36.16L2.28 35.56V36.16L2.58 36.4ZM15.3 36.4V36.16H15L15.3 36.4ZM3.42 36.16H3.72L4.02 35.86H3.42V36.16ZM19.92 35.86V35.56L19.68 35.26V35.56L19.92 35.86ZM6.36 35.26H7.2V34.96H6.6L6.36 35.26ZM6.6 34.42V34.12L6.36 33.52V34.12L6.6 34.42ZM4.32 31.48H4.62V31.24L4.32 30.94V31.48ZM2.88 29.2C2.72 29.2 2.64 29.3 2.64 29.5C2.64 29.66 2.72 29.74 2.88 29.74C3 29.74 3.06 29.66 3.06 29.5C3.06 29.3 3 29.2 2.88 29.2ZM6.6 29.2V28.3H6.36L6.06 28.6L6.6 29.2ZM20.52 10.36C20.36 10.36 20.28 10.46 20.28 10.66C20.28 10.86 20.36 10.96 20.52 10.96C20.68 10.96 20.76 10.86 20.76 10.66C20.76 10.46 20.68 10.36 20.52 10.36ZM8.1 8.62C7.94 8.62 7.86 8.72 7.86 8.92C7.86 9.12 7.94 9.22 8.1 9.22C8.22 9.22 8.28 9.12 8.28 8.92C8.28 8.72 8.22 8.62 8.1 8.62ZM22.9172 45.1V43.42C22.9172 43.26 22.9572 42.98 23.0372 42.58C23.0772 42.42 23.1372 42.22 23.2172 41.98L23.7572 41.38V41.08L23.4572 40.54V40.24L23.7572 39.64L24.3572 39.1V38.8H23.7572V38.5L24.4172 34.54C24.6172 33.46 24.7972 32.36 24.9572 31.24C25.1572 30.08 25.3372 29.14 25.4972 28.42L25.7972 26.98C26.0772 25.54 26.2972 24.12 26.4572 22.72C26.6572 21.28 26.9172 19.84 27.2372 18.4L27.4772 16.96C27.5572 16.72 27.6572 16.2 27.7772 15.4C27.9372 14.56 28.0772 13.68 28.1972 12.76C28.3572 11.84 28.4972 10.98 28.6172 10.18C28.7372 9.34 28.8372 8.82 28.9172 8.62C28.9972 8.3 29.0772 7.92 29.1572 7.48C29.2772 7 29.3772 6.52 29.4572 6.04C29.5772 5.52 29.6972 4.94 29.8172 4.3L30.1172 4H35.8772L36.4172 4.3C36.4972 4.3 36.6372 4.4 36.8372 4.6C36.9172 4.68 36.9772 4.76 37.0172 4.84V5.98C36.9372 6.66 36.7572 7.78 36.4772 9.34C36.2372 10.9 35.9572 12.56 35.6372 14.32C35.3572 16.08 35.0572 17.76 34.7372 19.36C34.4572 20.92 34.2572 22.02 34.1372 22.66C34.1372 22.82 34.0772 23.08 33.9572 23.44C33.8772 23.76 33.8372 23.98 33.8372 24.1L33.5372 25.3C33.5372 25.42 33.4772 25.74 33.3572 26.26C33.2772 26.78 33.2372 27.12 33.2372 27.28C33.2372 27.52 33.1572 28.04 32.9972 28.84C32.8372 29.6 32.6572 30.44 32.4572 31.36C32.2972 32.24 32.1372 33.08 31.9772 33.88C31.8572 34.64 31.7972 35.12 31.7972 35.32C31.6772 35.92 31.5972 36.46 31.5572 36.94C31.5572 37.42 31.5572 37.94 31.5572 38.5H37.8572C38.0172 38.5 38.2172 38.6 38.4572 38.8C38.6972 39 38.8772 39.1 38.9972 39.1H39.8972L40.1972 39.4L40.7372 39.64L40.8572 40C40.8972 40.08 40.9372 40.18 40.9772 40.3C41.0172 40.38 41.0372 40.46 41.0372 40.54L41.8772 39.94L41.3372 39.4L41.5772 39.1C41.7372 39.1 41.9372 39 42.1772 38.8C42.4172 38.6 42.6172 38.5 42.7772 38.5H43.0172L43.3172 38.8C43.3172 38.96 43.4172 39.14 43.6172 39.34C43.6972 39.46 43.7972 39.56 43.9172 39.64V39.94C43.9172 40.02 43.8972 40.12 43.8572 40.24C43.8172 40.36 43.7772 40.48 43.7372 40.6L43.6172 41.08L43.3172 41.38H42.1772L41.5772 41.68H41.3372L40.7372 41.08H36.1172V42.52H37.0172V42.82L36.7172 43.12H36.1172C36.1172 43.28 36.0772 43.48 35.9972 43.72C35.9172 43.92 35.8772 44.1 35.8772 44.26L35.5772 44.86C35.5772 44.98 35.6572 45.16 35.8172 45.4C35.8972 45.52 35.9972 45.62 36.1172 45.7L35.8772 46H33.2372L32.0972 45.7H31.7972L30.9572 46L30.1172 45.7H29.2172L28.3772 46H26.9372C26.7772 46 26.5372 45.98 26.2172 45.94C25.8972 45.9 25.5572 45.88 25.1972 45.88C24.8372 45.84 24.4972 45.8 24.1772 45.76C23.8572 45.72 23.6172 45.7 23.4572 45.7L22.9172 45.1ZM41.5772 45.1C41.5772 44.98 41.6772 44.82 41.8772 44.62C42.1172 44.38 42.3172 44.26 42.4772 44.26H42.7772L43.0172 44.56V44.86L42.7772 45.1C42.6572 45.18 42.5372 45.24 42.4172 45.28C42.1772 45.36 41.9972 45.4 41.8772 45.4H41.5772V45.1ZM34.4372 45.1L34.9772 44.56H34.4372L33.8372 44.86L34.4372 45.1ZM37.0172 43.66C37.0572 43.58 37.1172 43.48 37.1972 43.36L37.5572 42.82L37.8572 42.52C38.0172 42.52 38.1972 42.64 38.3972 42.88C38.6372 43.08 38.7572 43.26 38.7572 43.42L38.9972 43.96C39.1572 44.08 39.3172 44.18 39.4772 44.26C39.7572 44.46 39.9972 44.56 40.1972 44.56L41.0372 44.86V45.1H39.5972L38.9972 44.56H38.4572L38.1572 45.1H37.8572C37.6972 45.1 37.5172 44.96 37.3172 44.68C37.1972 44.56 37.0972 44.42 37.0172 44.26V43.66ZM25.1972 43.96H25.7972V43.66L25.1972 43.96ZM40.7372 42.82L41.0372 42.52C41.1572 42.52 41.3372 42.48 41.5772 42.4C41.6972 42.36 41.7972 42.3 41.8772 42.22C42.0372 42.3 42.1972 42.36 42.3572 42.4C42.6772 42.48 42.8972 42.52 43.0172 42.52L43.3172 42.82V43.42L43.0172 43.66H42.7772C42.6172 43.66 42.3172 43.58 41.8772 43.42C41.4772 43.22 41.1972 43.12 41.0372 43.12L40.7372 42.82ZM38.1572 41.68V41.98H37.8572V41.68H38.1572ZM38.9972 41.68C38.9972 41.84 38.9572 41.92 38.8772 41.92C38.7972 41.92 38.7572 41.84 38.7572 41.68C38.7572 41.52 38.7972 41.44 38.8772 41.44C38.9572 41.44 38.9972 41.52 38.9972 41.68ZM27.4772 41.38H28.0772L28.3772 41.08L27.4772 41.38ZM41.8772 41.08C41.8772 40.92 41.8172 40.84 41.6972 40.84C41.6172 40.84 41.5772 40.92 41.5772 41.08C41.5772 41.24 41.6172 41.32 41.6972 41.32C41.8172 41.32 41.8772 41.24 41.8772 41.08ZM28.9172 39.94L29.2172 39.64H28.9172V39.94ZM28.0772 39.4C28.0772 39.24 28.0172 39.16 27.8972 39.16C27.8172 39.16 27.7772 39.24 27.7772 39.4C27.7772 39.52 27.8172 39.58 27.8972 39.58C28.0172 39.58 28.0772 39.52 28.0772 39.4ZM26.6372 36.76C26.6372 36.64 26.5772 36.58 26.4572 36.58C26.3772 36.58 26.3372 36.64 26.3372 36.76C26.3372 36.92 26.3772 37 26.4572 37C26.5772 37 26.6372 36.92 26.6372 36.76ZM28.6772 31.9C28.5172 31.9 28.4372 32 28.4372 32.2C28.4372 32.36 28.5172 32.44 28.6772 32.44C28.7972 32.44 28.8572 32.36 28.8572 32.2C28.8572 32 28.7972 31.9 28.6772 31.9ZM25.7972 31.9L26.0372 31.6V31.3L25.7972 31.6V31.9ZM28.3772 31.9C28.3772 31.74 28.3172 31.66 28.1972 31.66C28.1172 31.66 28.0772 31.74 28.0772 31.9C28.0772 32.06 28.1172 32.14 28.1972 32.14C28.3172 32.14 28.3772 32.06 28.3772 31.9ZM49.6519 50.56V49.72C49.6519 49.64 49.6719 49.42 49.7119 49.06C49.7919 48.74 49.8719 48.38 49.9519 47.98C50.0319 47.62 50.0919 47.26 50.1319 46.9C50.2119 46.58 50.2519 46.38 50.2519 46.3V46H47.3719C47.2519 46 47.0319 45.86 46.7119 45.58C46.3919 45.26 46.2319 45.02 46.2319 44.86L46.5319 43.48C46.5319 43.32 46.5719 43 46.6519 42.52C46.7719 42 46.8319 41.66 46.8319 41.5C46.8319 41.34 46.8719 41.1 46.9519 40.78C47.0719 40.46 47.1319 40.22 47.1319 40.06C47.1319 39.94 47.1719 39.72 47.2519 39.4L47.3719 38.92L47.6719 38.38H51.3319C51.3719 38.34 51.4119 38.28 51.4519 38.2C51.4919 38.12 51.5319 38.06 51.5719 38.02C51.6119 37.94 51.6319 37.86 51.6319 37.78C51.6319 37.7 51.6719 37.54 51.7519 37.3C51.7919 37.18 51.8519 37.06 51.9319 36.94C51.9719 36.7 52.0919 36.2 52.2919 35.44C52.4919 34.68 52.7319 33.8 53.0119 32.8C53.2919 31.76 53.5919 30.66 53.9119 29.5C54.2319 28.3 54.5319 27.2 54.8119 26.2C55.0919 25.16 55.3319 24.26 55.5319 23.5C55.7319 22.7 55.8519 22.18 55.8919 21.94L56.1919 21.1C56.2319 20.86 56.3519 20.36 56.5519 19.6C56.7519 18.8 56.9919 17.88 57.2719 16.84C57.5519 15.8 57.8519 14.68 58.1719 13.48C58.4919 12.28 58.7919 11.16 59.0719 10.12C59.3519 9.04 59.5919 8.12 59.7919 7.36C59.9919 6.56 60.1119 6.04 60.1519 5.8C60.1519 5.72 60.1919 5.56 60.2719 5.32C60.3119 5.2 60.3719 5.08 60.4519 4.96L60.6919 4.72H76.5919C76.7519 4.72 76.9319 4.82 77.1319 5.02C77.3319 5.22 77.4319 5.4 77.4319 5.56V6.94C76.5919 11.78 75.7519 16.56 74.9119 21.28C74.0719 25.96 73.2119 30.72 72.3319 35.56L72.2119 36.16C72.1319 36.56 72.0919 36.82 72.0919 36.94V38.38C72.2119 38.38 72.4719 38.44 72.8719 38.56C73.3119 38.64 73.6119 38.68 73.7719 38.68H74.9119L75.2119 38.92L75.5719 39.46C75.6519 39.58 75.7119 39.7 75.7519 39.82V40.36C75.7519 40.44 75.7319 40.62 75.6919 40.9C75.6519 41.14 75.6119 41.42 75.5719 41.74C75.5319 42.06 75.4719 42.38 75.3919 42.7C75.3119 43.02 75.2519 43.28 75.2119 43.48C75.2119 43.92 75.1519 44.34 75.0319 44.74C74.9119 45.1 74.7719 45.44 74.6119 45.76L74.3119 46H70.6519C70.5719 46.16 70.5119 46.32 70.4719 46.48C70.3919 46.8 70.3519 47.02 70.3519 47.14C70.3519 47.22 70.3119 47.4 70.2319 47.68C70.1919 47.96 70.1319 48.26 70.0519 48.58C70.0119 48.9 69.9519 49.2 69.8719 49.48C69.8319 49.76 69.8119 49.92 69.8119 49.96C69.8119 50.04 69.7919 50.14 69.7519 50.26C69.7119 50.38 69.6719 50.5 69.6319 50.62L69.5119 51.1L69.2119 51.4H68.3719L68.0719 51.1L67.8319 50.56H67.5319V51.4L67.2319 51.7H63.2719C63.1519 51.66 63.0519 51.6 62.9719 51.52C62.8119 51.36 62.7319 51.22 62.7319 51.1L62.4319 50.56V49.96C62.4319 49.84 62.4719 49.56 62.5519 49.12C62.6719 48.72 62.7319 48.44 62.7319 48.28C62.7319 48.12 62.7719 47.78 62.8519 47.26C62.9319 46.78 62.9719 46.46 62.9719 46.3H57.8719C57.8319 46.62 57.7719 46.92 57.6919 47.2C57.6119 47.44 57.5519 47.68 57.5119 47.92C57.4719 48.2 57.4119 48.42 57.3319 48.58C57.3319 48.66 57.2919 48.82 57.2119 49.06C57.1719 49.3 57.1119 49.56 57.0319 49.84C56.9519 50.16 56.8719 50.46 56.7919 50.74C56.7519 51.02 56.7319 51.24 56.7319 51.4L56.4919 51.7H55.0519L54.4519 51.4H54.2119L53.9119 51.7H50.4919C50.3719 51.66 50.2719 51.6 50.1919 51.52C50.0319 51.36 49.9519 51.22 49.9519 51.1L49.6519 50.56ZM67.5319 49.72C67.3719 49.72 67.2919 49.8 67.2919 49.96C67.2919 50.16 67.3719 50.26 67.5319 50.26C67.6919 50.26 67.7719 50.16 67.7719 49.96C67.7719 49.8 67.6919 49.72 67.5319 49.72ZM65.2519 49.72H65.5519V49.42H65.2519V49.72ZM66.6919 49.42C66.6919 49.26 66.6319 49.18 66.5119 49.18C66.4319 49.18 66.3919 49.26 66.3919 49.42C66.3919 49.58 66.4319 49.66 66.5119 49.66C66.6319 49.66 66.6919 49.58 66.6919 49.42ZM66.6919 47.98C66.5319 47.98 66.4519 48.08 66.4519 48.28C66.4519 48.48 66.5319 48.58 66.6919 48.58C66.8519 48.58 66.9319 48.48 66.9319 48.28C66.9319 48.08 66.8519 47.98 66.6919 47.98ZM68.3719 46C68.2119 46 68.1319 46.1 68.1319 46.3C68.1319 46.5 68.2119 46.6 68.3719 46.6C68.5319 46.6 68.6119 46.5 68.6119 46.3C68.6119 46.1 68.5319 46 68.3719 46ZM59.3119 38.38H64.4119L68.9719 12.34H66.0919L60.9919 31.3L60.6919 32.14C60.6919 32.22 60.6519 32.38 60.5719 32.62C60.5319 32.82 60.4719 33.04 60.3919 33.28C60.3519 33.52 60.2919 33.76 60.2119 34C60.1719 34.2 60.1519 34.34 60.1519 34.42C60.1519 34.58 60.0519 34.92 59.8519 35.44C59.6919 35.92 59.6119 36.24 59.6119 36.4C59.6119 36.56 59.5519 36.8 59.4319 37.12C59.3519 37.44 59.3119 37.66 59.3119 37.78V38.38ZM84.4055 45.7C84.2455 45.7 83.9255 45.6 83.4455 45.4C83.2055 45.32 82.9455 45.22 82.6655 45.1C82.5055 45.1 82.2055 44.96 81.7655 44.68C81.3655 44.36 81.0855 44.12 80.9255 43.96C80.7655 43.88 80.6255 43.78 80.5055 43.66C80.2255 43.46 80.0855 43.28 80.0855 43.12L79.7855 42.52V41.92L79.2455 41.68L78.9455 41.38V41.08L78.6455 40.54C78.6455 40.46 78.6255 40.38 78.5855 40.3C78.5455 40.18 78.5055 40.08 78.4655 40L78.3455 39.64V36.46L78.4655 35.98C78.5055 35.86 78.5455 35.74 78.5855 35.62C78.6255 35.5 78.6455 35.4 78.6455 35.32C78.6455 35.2 78.6855 35.02 78.7655 34.78C78.8055 34.66 78.8655 34.56 78.9455 34.48L79.2455 34.18H81.5255C81.8055 34.18 82.2055 34.24 82.7255 34.36C83.2855 34.44 83.6455 34.48 83.8055 34.48L84.7055 35.02C84.8255 35.02 85.0055 35.08 85.2455 35.2C85.4855 35.28 85.6855 35.32 85.8455 35.32V37.66L86.3855 38.2H89.8655C90.0255 38.16 90.1855 38.1 90.3455 38.02C90.6655 37.86 90.8855 37.74 91.0055 37.66L91.6055 37.06V35.02L91.8455 33.88C91.8455 33.8 91.8655 33.64 91.9055 33.4C91.9455 33.16 91.9655 32.9 91.9655 32.62C92.0055 32.3 92.0455 32.02 92.0855 31.78C92.1255 31.54 92.1455 31.38 92.1455 31.3V29.32L91.6055 29.02C91.5255 29.02 91.3455 29 91.0655 28.96C90.7855 28.92 90.4855 28.9 90.1655 28.9C89.8455 28.86 89.5455 28.82 89.2655 28.78C88.9855 28.74 88.8055 28.72 88.7255 28.72C88.5655 28.72 88.3255 28.68 88.0055 28.6C87.6855 28.48 87.4455 28.42 87.2855 28.42L86.9255 28.3C86.8455 28.26 86.7455 28.22 86.6255 28.18C86.5455 28.14 86.4655 28.12 86.3855 28.12C86.3055 28.12 86.1855 28.08 86.0255 28C85.9455 27.96 85.8855 27.92 85.8455 27.88L85.5455 26.98H84.4055L84.1055 26.68V26.44L83.5055 26.14L83.2655 25.84V25.24L82.6655 25C82.3455 24.84 82.1455 24.58 82.0655 24.22C82.0255 23.86 81.9455 23.54 81.8255 23.26L81.5255 22.66V21.22L82.3655 20.92V20.68L81.8255 20.38L81.5255 20.08V19.24L82.0655 18.64H82.6655L83.2655 18.34H83.8055L84.4055 18.1C84.5655 18.1 84.7455 17.96 84.9455 17.68C85.0655 17.52 85.1655 17.36 85.2455 17.2L85.5455 17.5L85.8455 18.64L86.1455 18.94H86.6855L86.9855 18.64V18.1H86.6855V18.34L86.3855 18.64L86.1455 18.34L86.3855 17.8L86.1455 17.2L85.8455 16.36L85.5455 16.06H84.9455L84.4055 16.66V17.2L84.1055 17.5L83.8055 17.2V16.9C83.8055 16.78 83.8455 16.6 83.9255 16.36C84.0455 16.12 84.1055 15.92 84.1055 15.76H83.8055C83.8055 15.92 83.7055 16.16 83.5055 16.48C83.3455 16.8 83.2655 17.04 83.2655 17.2L82.9655 17.5C82.8855 17.5 82.7855 17.54 82.6655 17.62C82.5855 17.66 82.5055 17.72 82.4255 17.8C82.3055 17.92 82.1855 18.02 82.0655 18.1H81.8255V16.9C81.8255 16.86 81.8455 16.72 81.8855 16.48C81.9655 16.2 82.0255 15.92 82.0655 15.64C82.1455 15.32 82.2055 15.02 82.2455 14.74C82.3255 14.42 82.3655 14.18 82.3655 14.02L82.6655 13.18V12.58C82.6655 12.46 82.7655 12.18 82.9655 11.74C83.1655 11.3 83.2655 11.02 83.2655 10.9L83.5055 10.3C83.5855 10.22 83.6855 10.1 83.8055 9.94C83.9655 9.74 84.1055 9.54 84.2255 9.34C84.3855 9.1 84.5455 8.84 84.7055 8.56C84.7455 8.52 84.8655 8.4 85.0655 8.2C85.2655 7.96 85.4855 7.72 85.7255 7.48C85.9655 7.2 86.1855 6.96 86.3855 6.76C86.6255 6.52 86.8255 6.36 86.9855 6.28L87.2855 5.98C87.3655 5.9 87.4455 5.84 87.5255 5.8C87.6455 5.72 87.7455 5.68 87.8255 5.68C87.9855 5.56 88.2655 5.4 88.6655 5.2C89.1055 4.96 89.4055 4.84 89.5655 4.84L90.4055 4.54L91.0055 4.24C91.1655 4.24 91.4055 4.2 91.7255 4.12C92.0455 4.04 92.2855 4 92.4455 4H93.2855L94.1855 4.24L93.8855 4.84H94.4855L95.6255 4.24H96.4655C96.6255 4.24 96.8655 4.3 97.1855 4.42C97.5055 4.5 97.7455 4.54 97.9055 4.54C98.0655 4.66 98.2255 4.76 98.3855 4.84C98.6655 5.04 98.8855 5.14 99.0455 5.14C99.1255 5.14 99.2055 5.18 99.2855 5.26C99.4055 5.3 99.5055 5.36 99.5855 5.44L99.9455 5.68C100.025 5.68 100.185 5.84 100.425 6.16C100.545 6.32 100.665 6.46 100.785 6.58V6.88L100.485 7.42L99.3455 8.56V8.86L100.485 9.46L100.785 9.16V7.72L101.085 7.42C101.245 7.58 101.425 7.78 101.625 8.02C101.865 8.26 102.065 8.44 102.225 8.56L102.525 9.16V9.46L102.225 9.7L101.385 10.3V10.6L101.625 10.9H102.825V11.74L102.525 12.04H101.925L101.385 11.44H100.785L100.485 12.04V12.88H101.085L102.225 12.58H102.525L102.825 12.88V14.32C102.745 14.44 102.685 14.56 102.645 14.68C102.565 14.92 102.525 15.1 102.525 15.22L102.225 15.46C102.145 15.46 101.985 15.48 101.745 15.52C101.505 15.56 101.225 15.6 100.905 15.64C100.625 15.64 100.365 15.66 100.125 15.7C99.8855 15.74 99.7255 15.76 99.6455 15.76H96.1655L95.6255 15.22L95.3255 14.62L95.6255 13.78V12.58L95.0255 11.74V11.14L95.3255 10.6V10.3L94.7255 10.6L94.4855 11.14L94.1855 11.44H92.1455C92.0655 11.44 91.9655 11.46 91.8455 11.5C91.7655 11.54 91.6855 11.58 91.6055 11.62C91.4855 11.66 91.3855 11.7 91.3055 11.74L90.8255 12.1C90.5455 12.3 90.4055 12.46 90.4055 12.58C90.2855 12.74 90.1055 13 89.8655 13.36C89.6655 13.68 89.5655 13.9 89.5655 14.02V15.46C89.5655 15.54 89.5255 15.78 89.4455 16.18C89.4055 16.58 89.3455 17.02 89.2655 17.5C89.2255 17.98 89.1655 18.42 89.0855 18.82C89.0455 19.22 89.0255 19.46 89.0255 19.54V20.08L89.2655 20.68L89.5655 20.92C89.8855 20.92 90.4055 20.98 91.1255 21.1C91.8855 21.18 92.4255 21.22 92.7455 21.22C92.9055 21.22 93.2455 21.32 93.7655 21.52C94.3255 21.72 94.7455 21.82 95.0255 21.82L95.6255 22.12C95.7855 22.24 96.1255 22.52 96.6455 22.96C97.2055 23.4 97.6255 23.68 97.9055 23.8L98.2055 24.1C98.2055 24.26 98.3455 24.5 98.6255 24.82C98.9055 25.14 99.0455 25.38 99.0455 25.54C99.1255 25.62 99.1855 25.72 99.2255 25.84C99.3055 25.96 99.3855 26.08 99.4655 26.2C99.5455 26.36 99.6055 26.52 99.6455 26.68C99.6855 26.96 99.7255 27.18 99.7655 27.34C99.8055 27.54 99.8455 27.7 99.8855 27.82C99.9255 27.94 99.9455 28.04 99.9455 28.12V28.72L99.3455 29.32L99.9455 29.56V30.16C99.9455 30.32 99.9255 30.52 99.8855 30.76C99.8455 30.96 99.8055 31.16 99.7655 31.36C99.7255 31.6 99.6855 31.86 99.6455 32.14L99.0455 33.04V35.02C99.0455 35.18 99.0055 35.42 98.9255 35.74C98.8855 36.02 98.8255 36.32 98.7455 36.64C98.7055 36.92 98.6455 37.2 98.5655 37.48C98.5255 37.72 98.5055 37.86 98.5055 37.9C98.5055 37.98 98.4455 38.16 98.3255 38.44C98.2055 38.68 98.0655 38.96 97.9055 39.28C97.7455 39.56 97.5855 39.86 97.4255 40.18C97.2655 40.46 97.1455 40.66 97.0655 40.78L96.4655 41.38L95.6255 42.52L95.0255 43.12C94.9455 43.2 94.8455 43.3 94.7255 43.42C94.6055 43.5 94.4855 43.58 94.3655 43.66C94.2055 43.78 94.0455 43.88 93.8855 43.96C93.8055 44.04 93.6255 44.14 93.3455 44.26C93.1055 44.38 92.8255 44.52 92.5055 44.68C92.2255 44.84 91.9455 44.98 91.6655 45.1C91.3855 45.22 91.1655 45.32 91.0055 45.4C90.9255 45.4 90.8255 45.42 90.7055 45.46C90.6255 45.5 90.5455 45.54 90.4655 45.58C90.3455 45.62 90.2455 45.66 90.1655 45.7H89.0255L88.4255 46H85.5455L85.0655 45.88C84.9455 45.84 84.8255 45.8 84.7055 45.76C84.5855 45.72 84.4855 45.7 84.4055 45.7ZM85.8455 44.56L86.6855 44.26V43.96H86.3855L85.8455 44.26V44.56ZM89.8655 43.12C89.7055 43.24 89.5055 43.42 89.2655 43.66C89.0655 43.9 88.8855 44.1 88.7255 44.26H89.2655C89.4255 44.26 89.6055 44.1 89.8055 43.78C90.0455 43.46 90.1655 43.24 90.1655 43.12H89.8655ZM87.8255 43.66H88.1255V43.12L87.8255 43.66ZM89.0255 41.92C89.0255 41.8 88.9255 41.74 88.7255 41.74C88.5255 41.74 88.4255 41.8 88.4255 41.92C88.4255 42.08 88.5255 42.16 88.7255 42.16C88.9255 42.16 89.0255 42.08 89.0255 41.92ZM95.3255 41.68H95.6255V41.38L95.3255 41.08V41.68ZM87.8255 39.94C87.7055 39.94 87.6455 40.04 87.6455 40.24C87.6455 40.44 87.7055 40.54 87.8255 40.54C87.9855 40.54 88.0655 40.44 88.0655 40.24C88.0655 40.04 87.9855 39.94 87.8255 39.94ZM88.7255 39.94H90.7055L90.4055 39.64C90.3255 39.6 90.2255 39.56 90.1055 39.52C90.0255 39.48 89.9255 39.44 89.8055 39.4C89.7255 39.36 89.6455 39.34 89.5655 39.34H89.2655L88.7255 39.64V39.94ZM82.3655 39.1H82.9655L82.3655 38.8H82.0655L82.3655 39.1ZM95.6255 38.5C95.4655 38.5 95.3855 38.6 95.3855 38.8C95.3855 39 95.4655 39.1 95.6255 39.1C95.7855 39.1 95.8655 39 95.8655 38.8C95.8655 38.6 95.7855 38.5 95.6255 38.5ZM96.7655 38.2C96.6055 38.2 96.5255 38.26 96.5255 38.38C96.5255 38.46 96.6055 38.5 96.7655 38.5C96.9255 38.5 97.0055 38.46 97.0055 38.38C97.0055 38.26 96.9255 38.2 96.7655 38.2ZM79.4855 37.9C79.3655 37.9 79.3055 37.96 79.3055 38.08C79.3055 38.16 79.3655 38.2 79.4855 38.2C79.6455 38.2 79.7255 38.16 79.7255 38.08C79.7255 37.96 79.6455 37.9 79.4855 37.9ZM92.4455 38.2H93.0455V37.66L92.7455 37.06L92.4455 37.36V38.2ZM95.3255 37.36C95.3255 37.2 95.2655 37.12 95.1455 37.12C95.0655 37.12 95.0255 37.2 95.0255 37.36C95.0255 37.52 95.0655 37.6 95.1455 37.6C95.2655 37.6 95.3255 37.52 95.3255 37.36ZM97.0655 37.36H97.6055V37.06H97.3655L97.0655 37.36ZM95.3255 36.46C95.1655 36.46 95.0855 36.52 95.0855 36.64C95.0855 36.72 95.1655 36.76 95.3255 36.76C95.4855 36.76 95.5655 36.72 95.5655 36.64C95.5655 36.52 95.4855 36.46 95.3255 36.46ZM95.3255 34.78C95.1655 34.78 95.0855 34.92 95.0855 35.2C95.0855 35.48 95.1655 35.62 95.3255 35.62C95.4855 35.62 95.5655 35.48 95.5655 35.2C95.5655 34.92 95.4855 34.78 95.3255 34.78ZM96.7655 34.78C96.6055 34.78 96.5255 34.88 96.5255 35.08C96.5255 35.24 96.6055 35.32 96.7655 35.32C96.9255 35.32 97.0055 35.24 97.0055 35.08C97.0055 34.88 96.9255 34.78 96.7655 34.78ZM85.2455 34.78H84.9455V34.48L85.2455 34.78ZM97.9055 32.44L98.2055 31.9H97.6055L97.3655 32.14L97.9055 32.44ZM95.9255 29.02C95.7655 29.02 95.6855 29.08 95.6855 29.2C95.6855 29.28 95.7655 29.32 95.9255 29.32C96.0455 29.32 96.1055 29.28 96.1055 29.2C96.1055 29.08 96.0455 29.02 95.9255 29.02ZM88.7255 27.58C88.5655 27.58 88.4855 27.68 88.4855 27.88C88.4855 28.04 88.5655 28.12 88.7255 28.12C88.8855 28.12 88.9655 28.04 88.9655 27.88C88.9655 27.68 88.8855 27.58 88.7255 27.58ZM89.0255 26.98C88.8655 26.98 88.7855 27.04 88.7855 27.16C88.7855 27.24 88.8655 27.28 89.0255 27.28C89.1455 27.28 89.2055 27.24 89.2055 27.16C89.2055 27.04 89.1455 26.98 89.0255 26.98ZM86.6855 25.84C86.6855 25.68 86.6255 25.6 86.5055 25.6C86.4255 25.6 86.3855 25.68 86.3855 25.84C86.3855 26 86.4255 26.08 86.5055 26.08C86.6255 26.08 86.6855 26 86.6855 25.84ZM90.4055 25.54C90.2855 25.54 90.2255 25.64 90.2255 25.84C90.2255 26.04 90.2855 26.14 90.4055 26.14C90.5655 26.14 90.6455 26.04 90.6455 25.84C90.6455 25.64 90.5655 25.54 90.4055 25.54ZM89.5655 25.54V24.7H89.0255L89.2655 25.24L89.5655 25.54ZM84.7055 25.24C84.7055 25.12 84.6455 25.06 84.5255 25.06C84.4455 25.06 84.4055 25.12 84.4055 25.24C84.4055 25.4 84.4455 25.48 84.5255 25.48C84.6455 25.48 84.7055 25.4 84.7055 25.24ZM96.7655 24.7C96.6055 24.7 96.5255 24.8 96.5255 25C96.5255 25.16 96.6055 25.24 96.7655 25.24C96.9255 25.24 97.0055 25.16 97.0055 25C97.0055 24.8 96.9255 24.7 96.7655 24.7ZM84.4055 23.26H85.2455V22.96L84.9455 22.66H84.4055V23.26ZM86.1455 23.26H86.3855L86.6855 22.96V22.66C86.6855 22.58 86.6655 22.5 86.6255 22.42C86.5855 22.3 86.5455 22.2 86.5055 22.12C86.4655 22 86.4255 21.9 86.3855 21.82H86.1455L85.5455 22.36L86.1455 22.66V23.26ZM82.9655 22.66C82.8055 22.66 82.7255 22.76 82.7255 22.96C82.7255 23.16 82.8055 23.26 82.9655 23.26C83.1255 23.26 83.2055 23.16 83.2055 22.96C83.2055 22.76 83.1255 22.66 82.9655 22.66ZM89.2655 22.96V22.12L89.0255 21.82V22.36L89.2655 22.96ZM83.2655 22.36L83.8055 21.82V20.92H83.5055L83.2655 21.22L82.9655 21.82V22.12L83.2655 22.36ZM84.9455 21.52C84.8255 21.52 84.7655 21.62 84.7655 21.82C84.7655 22.02 84.8255 22.12 84.9455 22.12C85.1055 22.12 85.1855 22.02 85.1855 21.82C85.1855 21.62 85.1055 21.52 84.9455 21.52ZM86.9855 21.22C86.8255 21.22 86.7455 21.28 86.7455 21.4C86.7455 21.48 86.8255 21.52 86.9855 21.52C87.1455 21.52 87.2255 21.48 87.2255 21.4C87.2255 21.28 87.1455 21.22 86.9855 21.22ZM85.5455 20.92C85.3855 20.92 85.3055 21.02 85.3055 21.22C85.3055 21.42 85.3855 21.52 85.5455 21.52C85.7055 21.52 85.7855 21.42 85.7855 21.22C85.7855 21.02 85.7055 20.92 85.5455 20.92ZM86.9855 20.38C86.8255 20.38 86.7455 20.44 86.7455 20.56C86.7455 20.64 86.8255 20.68 86.9855 20.68C87.1455 20.68 87.2255 20.64 87.2255 20.56C87.2255 20.44 87.1455 20.38 86.9855 20.38ZM100.485 14.62H100.785V14.02L100.485 14.32V14.62ZM88.4255 13.78C88.2655 13.78 88.1855 13.88 88.1855 14.08C88.1855 14.24 88.2655 14.32 88.4255 14.32C88.5855 14.32 88.6655 14.24 88.6655 14.08C88.6655 13.88 88.5855 13.78 88.4255 13.78ZM89.8655 11.74C89.8655 11.58 89.8055 11.5 89.6855 11.5C89.6055 11.5 89.5655 11.58 89.5655 11.74C89.5655 11.9 89.6055 11.98 89.6855 11.98C89.8055 11.98 89.8655 11.9 89.8655 11.74ZM99.9455 10.9C99.9455 10.74 99.8855 10.66 99.7655 10.66C99.6855 10.66 99.6455 10.74 99.6455 10.9C99.6455 11.02 99.6855 11.08 99.7655 11.08C99.8855 11.08 99.9455 11.02 99.9455 10.9ZM90.1655 9.7C90.0055 9.7 89.9255 9.76 89.9255 9.88C89.9255 9.96 90.0055 10 90.1655 10C90.2855 10 90.3455 9.96 90.3455 9.88C90.3455 9.76 90.2855 9.7 90.1655 9.7ZM95.0255 9.7L95.3255 9.46H95.0255V9.7ZM91.6055 9.16H91.8455L91.6055 8.86V9.16ZM86.1455 8.86H86.3855L86.9855 8.56V8.32L86.1455 8.86ZM93.0455 8.02C93.0455 7.86 92.8855 7.78 92.5655 7.78C92.2855 7.78 92.1455 7.86 92.1455 8.02C92.1455 8.18 92.2855 8.26 92.5655 8.26C92.8855 8.26 93.0455 8.18 93.0455 8.02ZM98.8055 7.72C98.6455 7.72 98.5655 7.82 98.5655 8.02C98.5655 8.22 98.6455 8.32 98.8055 8.32C98.9255 8.32 98.9855 8.22 98.9855 8.02C98.9855 7.82 98.9255 7.72 98.8055 7.72ZM93.8855 7.42C93.7255 7.42 93.6455 7.52 93.6455 7.72C93.6455 7.92 93.7255 8.02 93.8855 8.02C94.0455 8.02 94.1255 7.92 94.1255 7.72C94.1255 7.52 94.0455 7.42 93.8855 7.42ZM89.8655 7.12L90.7055 6.58H89.8655V7.12ZM96.1655 7.12C96.1655 7 96.1255 6.94 96.0455 6.94C95.9655 6.94 95.9255 7 95.9255 7.12C95.9255 7.28 95.9655 7.36 96.0455 7.36C96.1255 7.36 96.1655 7.28 96.1655 7.12ZM91.8455 6.28C91.7255 6.28 91.6655 6.38 91.6655 6.58C91.6655 6.78 91.7255 6.88 91.8455 6.88C92.0055 6.88 92.0855 6.78 92.0855 6.58C92.0855 6.38 92.0055 6.28 91.8455 6.28ZM96.4655 5.44C96.3055 5.44 96.2255 5.54 96.2255 5.74C96.2255 5.9 96.3055 5.98 96.4655 5.98C96.6255 5.98 96.7055 5.9 96.7055 5.74C96.7055 5.54 96.6255 5.44 96.4655 5.44ZM97.6055 5.68H97.9055V5.14H97.6055V5.68ZM108.663 45.7C108.503 45.7 108.183 45.6 107.703 45.4C107.463 45.32 107.203 45.22 106.923 45.1C106.763 45.1 106.463 44.96 106.023 44.68C105.623 44.36 105.343 44.12 105.183 43.96C105.023 43.88 104.883 43.78 104.763 43.66C104.483 43.46 104.343 43.28 104.343 43.12L104.043 42.52V41.92L103.503 41.68L103.203 41.38V41.08L102.903 40.54C102.903 40.46 102.883 40.38 102.843 40.3C102.803 40.18 102.763 40.08 102.723 40L102.603 39.64V36.46L102.723 35.98C102.763 35.86 102.803 35.74 102.843 35.62C102.883 35.5 102.903 35.4 102.903 35.32C102.903 35.2 102.943 35.02 103.023 34.78C103.063 34.66 103.123 34.56 103.203 34.48L103.503 34.18H105.783C106.063 34.18 106.463 34.24 106.983 34.36C107.543 34.44 107.903 34.48 108.063 34.48L108.963 35.02C109.083 35.02 109.263 35.08 109.503 35.2C109.743 35.28 109.943 35.32 110.103 35.32V37.66L110.643 38.2H114.123C114.283 38.16 114.443 38.1 114.603 38.02C114.923 37.86 115.143 37.74 115.263 37.66L115.863 37.06V35.02L116.103 33.88C116.103 33.8 116.123 33.64 116.163 33.4C116.203 33.16 116.223 32.9 116.223 32.62C116.263 32.3 116.303 32.02 116.343 31.78C116.383 31.54 116.403 31.38 116.403 31.3V29.32L115.863 29.02C115.783 29.02 115.603 29 115.323 28.96C115.043 28.92 114.743 28.9 114.423 28.9C114.103 28.86 113.803 28.82 113.523 28.78C113.243 28.74 113.063 28.72 112.983 28.72C112.823 28.72 112.583 28.68 112.263 28.6C111.943 28.48 111.703 28.42 111.543 28.42L111.183 28.3C111.103 28.26 111.003 28.22 110.883 28.18C110.803 28.14 110.723 28.12 110.643 28.12C110.563 28.12 110.443 28.08 110.283 28C110.203 27.96 110.143 27.92 110.103 27.88L109.803 26.98H108.663L108.363 26.68V26.44L107.763 26.14L107.523 25.84V25.24L106.923 25C106.603 24.84 106.403 24.58 106.323 24.22C106.283 23.86 106.203 23.54 106.083 23.26L105.783 22.66V21.22L106.623 20.92V20.68L106.083 20.38L105.783 20.08V19.24L106.323 18.64H106.923L107.523 18.34H108.063L108.663 18.1C108.823 18.1 109.003 17.96 109.203 17.68C109.323 17.52 109.423 17.36 109.503 17.2L109.803 17.5L110.103 18.64L110.403 18.94H110.943L111.243 18.64V18.1H110.943V18.34L110.643 18.64L110.403 18.34L110.643 17.8L110.403 17.2L110.103 16.36L109.803 16.06H109.203L108.663 16.66V17.2L108.363 17.5L108.063 17.2V16.9C108.063 16.78 108.103 16.6 108.183 16.36C108.303 16.12 108.363 15.92 108.363 15.76H108.063C108.063 15.92 107.963 16.16 107.763 16.48C107.603 16.8 107.523 17.04 107.523 17.2L107.223 17.5C107.143 17.5 107.043 17.54 106.923 17.62C106.843 17.66 106.763 17.72 106.683 17.8C106.563 17.92 106.443 18.02 106.323 18.1H106.083V16.9C106.083 16.86 106.103 16.72 106.143 16.48C106.223 16.2 106.283 15.92 106.323 15.64C106.403 15.32 106.463 15.02 106.503 14.74C106.583 14.42 106.623 14.18 106.623 14.02L106.923 13.18V12.58C106.923 12.46 107.023 12.18 107.223 11.74C107.423 11.3 107.523 11.02 107.523 10.9L107.763 10.3C107.843 10.22 107.943 10.1 108.063 9.94C108.223 9.74 108.363 9.54 108.483 9.34C108.643 9.1 108.803 8.84 108.963 8.56C109.003 8.52 109.123 8.4 109.323 8.2C109.523 7.96 109.743 7.72 109.983 7.48C110.223 7.2 110.443 6.96 110.643 6.76C110.883 6.52 111.083 6.36 111.243 6.28L111.543 5.98C111.623 5.9 111.703 5.84 111.783 5.8C111.903 5.72 112.003 5.68 112.083 5.68C112.243 5.56 112.523 5.4 112.923 5.2C113.363 4.96 113.663 4.84 113.823 4.84L114.663 4.54L115.263 4.24C115.423 4.24 115.663 4.2 115.983 4.12C116.303 4.04 116.543 4 116.703 4H117.543L118.443 4.24L118.143 4.84H118.743L119.883 4.24H120.723C120.883 4.24 121.123 4.3 121.443 4.42C121.763 4.5 122.003 4.54 122.163 4.54C122.323 4.66 122.483 4.76 122.643 4.84C122.923 5.04 123.143 5.14 123.303 5.14C123.383 5.14 123.463 5.18 123.543 5.26C123.663 5.3 123.763 5.36 123.843 5.44L124.203 5.68C124.283 5.68 124.443 5.84 124.683 6.16C124.803 6.32 124.923 6.46 125.043 6.58V6.88L124.743 7.42L123.603 8.56V8.86L124.743 9.46L125.043 9.16V7.72L125.343 7.42C125.503 7.58 125.683 7.78 125.883 8.02C126.123 8.26 126.323 8.44 126.483 8.56L126.783 9.16V9.46L126.483 9.7L125.643 10.3V10.6L125.883 10.9H127.083V11.74L126.783 12.04H126.183L125.643 11.44H125.043L124.743 12.04V12.88H125.343L126.483 12.58H126.783L127.083 12.88V14.32C127.003 14.44 126.943 14.56 126.903 14.68C126.823 14.92 126.783 15.1 126.783 15.22L126.483 15.46C126.403 15.46 126.243 15.48 126.003 15.52C125.763 15.56 125.483 15.6 125.163 15.64C124.883 15.64 124.623 15.66 124.383 15.7C124.143 15.74 123.983 15.76 123.903 15.76H120.423L119.883 15.22L119.583 14.62L119.883 13.78V12.58L119.283 11.74V11.14L119.583 10.6V10.3L118.983 10.6L118.743 11.14L118.443 11.44H116.403C116.323 11.44 116.223 11.46 116.103 11.5C116.023 11.54 115.943 11.58 115.863 11.62C115.743 11.66 115.643 11.7 115.563 11.74L115.083 12.1C114.803 12.3 114.663 12.46 114.663 12.58C114.543 12.74 114.363 13 114.123 13.36C113.923 13.68 113.823 13.9 113.823 14.02V15.46C113.823 15.54 113.783 15.78 113.703 16.18C113.663 16.58 113.603 17.02 113.523 17.5C113.483 17.98 113.423 18.42 113.343 18.82C113.303 19.22 113.283 19.46 113.283 19.54V20.08L113.523 20.68L113.823 20.92C114.143 20.92 114.663 20.98 115.383 21.1C116.143 21.18 116.683 21.22 117.003 21.22C117.163 21.22 117.503 21.32 118.023 21.52C118.583 21.72 119.003 21.82 119.283 21.82L119.883 22.12C120.043 22.24 120.383 22.52 120.903 22.96C121.463 23.4 121.883 23.68 122.163 23.8L122.463 24.1C122.463 24.26 122.603 24.5 122.883 24.82C123.163 25.14 123.303 25.38 123.303 25.54C123.383 25.62 123.443 25.72 123.483 25.84C123.563 25.96 123.643 26.08 123.723 26.2C123.803 26.36 123.863 26.52 123.903 26.68C123.943 26.96 123.983 27.18 124.023 27.34C124.063 27.54 124.103 27.7 124.143 27.82C124.183 27.94 124.203 28.04 124.203 28.12V28.72L123.603 29.32L124.203 29.56V30.16C124.203 30.32 124.183 30.52 124.143 30.76C124.103 30.96 124.063 31.16 124.023 31.36C123.983 31.6 123.943 31.86 123.903 32.14L123.303 33.04V35.02C123.303 35.18 123.263 35.42 123.183 35.74C123.143 36.02 123.083 36.32 123.003 36.64C122.963 36.92 122.903 37.2 122.823 37.48C122.783 37.72 122.763 37.86 122.763 37.9C122.763 37.98 122.703 38.16 122.583 38.44C122.463 38.68 122.323 38.96 122.163 39.28C122.003 39.56 121.843 39.86 121.683 40.18C121.523 40.46 121.403 40.66 121.323 40.78L120.723 41.38L119.883 42.52L119.283 43.12C119.203 43.2 119.103 43.3 118.983 43.42C118.863 43.5 118.743 43.58 118.623 43.66C118.463 43.78 118.303 43.88 118.143 43.96C118.063 44.04 117.883 44.14 117.603 44.26C117.363 44.38 117.083 44.52 116.763 44.68C116.483 44.84 116.203 44.98 115.923 45.1C115.643 45.22 115.423 45.32 115.263 45.4C115.183 45.4 115.083 45.42 114.963 45.46C114.883 45.5 114.803 45.54 114.723 45.58C114.603 45.62 114.503 45.66 114.423 45.7H113.283L112.683 46H109.803L109.323 45.88C109.203 45.84 109.083 45.8 108.963 45.76C108.843 45.72 108.743 45.7 108.663 45.7ZM110.103 44.56L110.943 44.26V43.96H110.643L110.103 44.26V44.56ZM114.123 43.12C113.963 43.24 113.763 43.42 113.523 43.66C113.323 43.9 113.143 44.1 112.983 44.26H113.523C113.683 44.26 113.863 44.1 114.063 43.78C114.303 43.46 114.423 43.24 114.423 43.12H114.123ZM112.083 43.66H112.383V43.12L112.083 43.66ZM113.283 41.92C113.283 41.8 113.183 41.74 112.983 41.74C112.783 41.74 112.683 41.8 112.683 41.92C112.683 42.08 112.783 42.16 112.983 42.16C113.183 42.16 113.283 42.08 113.283 41.92ZM119.583 41.68H119.883V41.38L119.583 41.08V41.68ZM112.083 39.94C111.963 39.94 111.903 40.04 111.903 40.24C111.903 40.44 111.963 40.54 112.083 40.54C112.243 40.54 112.323 40.44 112.323 40.24C112.323 40.04 112.243 39.94 112.083 39.94ZM112.983 39.94H114.963L114.663 39.64C114.583 39.6 114.483 39.56 114.363 39.52C114.283 39.48 114.183 39.44 114.063 39.4C113.983 39.36 113.903 39.34 113.823 39.34H113.523L112.983 39.64V39.94ZM106.623 39.1H107.223L106.623 38.8H106.323L106.623 39.1ZM119.883 38.5C119.723 38.5 119.643 38.6 119.643 38.8C119.643 39 119.723 39.1 119.883 39.1C120.043 39.1 120.123 39 120.123 38.8C120.123 38.6 120.043 38.5 119.883 38.5ZM121.023 38.2C120.863 38.2 120.783 38.26 120.783 38.38C120.783 38.46 120.863 38.5 121.023 38.5C121.183 38.5 121.263 38.46 121.263 38.38C121.263 38.26 121.183 38.2 121.023 38.2ZM103.743 37.9C103.623 37.9 103.563 37.96 103.563 38.08C103.563 38.16 103.623 38.2 103.743 38.2C103.903 38.2 103.983 38.16 103.983 38.08C103.983 37.96 103.903 37.9 103.743 37.9ZM116.703 38.2H117.303V37.66L117.003 37.06L116.703 37.36V38.2ZM119.583 37.36C119.583 37.2 119.523 37.12 119.403 37.12C119.323 37.12 119.283 37.2 119.283 37.36C119.283 37.52 119.323 37.6 119.403 37.6C119.523 37.6 119.583 37.52 119.583 37.36ZM121.323 37.36H121.863V37.06H121.623L121.323 37.36ZM119.583 36.46C119.423 36.46 119.343 36.52 119.343 36.64C119.343 36.72 119.423 36.76 119.583 36.76C119.743 36.76 119.823 36.72 119.823 36.64C119.823 36.52 119.743 36.46 119.583 36.46ZM119.583 34.78C119.423 34.78 119.343 34.92 119.343 35.2C119.343 35.48 119.423 35.62 119.583 35.62C119.743 35.62 119.823 35.48 119.823 35.2C119.823 34.92 119.743 34.78 119.583 34.78ZM121.023 34.78C120.863 34.78 120.783 34.88 120.783 35.08C120.783 35.24 120.863 35.32 121.023 35.32C121.183 35.32 121.263 35.24 121.263 35.08C121.263 34.88 121.183 34.78 121.023 34.78ZM109.503 34.78H109.203V34.48L109.503 34.78ZM122.163 32.44L122.463 31.9H121.863L121.623 32.14L122.163 32.44ZM120.183 29.02C120.023 29.02 119.943 29.08 119.943 29.2C119.943 29.28 120.023 29.32 120.183 29.32C120.303 29.32 120.363 29.28 120.363 29.2C120.363 29.08 120.303 29.02 120.183 29.02ZM112.983 27.58C112.823 27.58 112.743 27.68 112.743 27.88C112.743 28.04 112.823 28.12 112.983 28.12C113.143 28.12 113.223 28.04 113.223 27.88C113.223 27.68 113.143 27.58 112.983 27.58ZM113.283 26.98C113.123 26.98 113.043 27.04 113.043 27.16C113.043 27.24 113.123 27.28 113.283 27.28C113.403 27.28 113.463 27.24 113.463 27.16C113.463 27.04 113.403 26.98 113.283 26.98ZM110.943 25.84C110.943 25.68 110.883 25.6 110.763 25.6C110.683 25.6 110.643 25.68 110.643 25.84C110.643 26 110.683 26.08 110.763 26.08C110.883 26.08 110.943 26 110.943 25.84ZM114.663 25.54C114.543 25.54 114.483 25.64 114.483 25.84C114.483 26.04 114.543 26.14 114.663 26.14C114.823 26.14 114.903 26.04 114.903 25.84C114.903 25.64 114.823 25.54 114.663 25.54ZM113.823 25.54V24.7H113.283L113.523 25.24L113.823 25.54ZM108.963 25.24C108.963 25.12 108.903 25.06 108.783 25.06C108.703 25.06 108.663 25.12 108.663 25.24C108.663 25.4 108.703 25.48 108.783 25.48C108.903 25.48 108.963 25.4 108.963 25.24ZM121.023 24.7C120.863 24.7 120.783 24.8 120.783 25C120.783 25.16 120.863 25.24 121.023 25.24C121.183 25.24 121.263 25.16 121.263 25C121.263 24.8 121.183 24.7 121.023 24.7ZM108.663 23.26H109.503V22.96L109.203 22.66H108.663V23.26ZM110.403 23.26H110.643L110.943 22.96V22.66C110.943 22.58 110.923 22.5 110.883 22.42C110.843 22.3 110.803 22.2 110.763 22.12C110.723 22 110.683 21.9 110.643 21.82H110.403L109.803 22.36L110.403 22.66V23.26ZM107.223 22.66C107.063 22.66 106.983 22.76 106.983 22.96C106.983 23.16 107.063 23.26 107.223 23.26C107.383 23.26 107.463 23.16 107.463 22.96C107.463 22.76 107.383 22.66 107.223 22.66ZM113.523 22.96V22.12L113.283 21.82V22.36L113.523 22.96ZM107.523 22.36L108.063 21.82V20.92H107.763L107.523 21.22L107.223 21.82V22.12L107.523 22.36ZM109.203 21.52C109.083 21.52 109.023 21.62 109.023 21.82C109.023 22.02 109.083 22.12 109.203 22.12C109.363 22.12 109.443 22.02 109.443 21.82C109.443 21.62 109.363 21.52 109.203 21.52ZM111.243 21.22C111.083 21.22 111.003 21.28 111.003 21.4C111.003 21.48 111.083 21.52 111.243 21.52C111.403 21.52 111.483 21.48 111.483 21.4C111.483 21.28 111.403 21.22 111.243 21.22ZM109.803 20.92C109.643 20.92 109.563 21.02 109.563 21.22C109.563 21.42 109.643 21.52 109.803 21.52C109.963 21.52 110.043 21.42 110.043 21.22C110.043 21.02 109.963 20.92 109.803 20.92ZM111.243 20.38C111.083 20.38 111.003 20.44 111.003 20.56C111.003 20.64 111.083 20.68 111.243 20.68C111.403 20.68 111.483 20.64 111.483 20.56C111.483 20.44 111.403 20.38 111.243 20.38ZM124.743 14.62H125.043V14.02L124.743 14.32V14.62ZM112.683 13.78C112.523 13.78 112.443 13.88 112.443 14.08C112.443 14.24 112.523 14.32 112.683 14.32C112.843 14.32 112.923 14.24 112.923 14.08C112.923 13.88 112.843 13.78 112.683 13.78ZM114.123 11.74C114.123 11.58 114.063 11.5 113.943 11.5C113.863 11.5 113.823 11.58 113.823 11.74C113.823 11.9 113.863 11.98 113.943 11.98C114.063 11.98 114.123 11.9 114.123 11.74ZM124.203 10.9C124.203 10.74 124.143 10.66 124.023 10.66C123.943 10.66 123.903 10.74 123.903 10.9C123.903 11.02 123.943 11.08 124.023 11.08C124.143 11.08 124.203 11.02 124.203 10.9ZM114.423 9.7C114.263 9.7 114.183 9.76 114.183 9.88C114.183 9.96 114.263 10 114.423 10C114.543 10 114.603 9.96 114.603 9.88C114.603 9.76 114.543 9.7 114.423 9.7ZM119.283 9.7L119.583 9.46H119.283V9.7ZM115.863 9.16H116.103L115.863 8.86V9.16ZM110.403 8.86H110.643L111.243 8.56V8.32L110.403 8.86ZM117.303 8.02C117.303 7.86 117.143 7.78 116.823 7.78C116.543 7.78 116.403 7.86 116.403 8.02C116.403 8.18 116.543 8.26 116.823 8.26C117.143 8.26 117.303 8.18 117.303 8.02ZM123.063 7.72C122.903 7.72 122.823 7.82 122.823 8.02C122.823 8.22 122.903 8.32 123.063 8.32C123.183 8.32 123.243 8.22 123.243 8.02C123.243 7.82 123.183 7.72 123.063 7.72ZM118.143 7.42C117.983 7.42 117.903 7.52 117.903 7.72C117.903 7.92 117.983 8.02 118.143 8.02C118.303 8.02 118.383 7.92 118.383 7.72C118.383 7.52 118.303 7.42 118.143 7.42ZM114.123 7.12L114.963 6.58H114.123V7.12ZM120.423 7.12C120.423 7 120.383 6.94 120.303 6.94C120.223 6.94 120.183 7 120.183 7.12C120.183 7.28 120.223 7.36 120.303 7.36C120.383 7.36 120.423 7.28 120.423 7.12ZM116.103 6.28C115.983 6.28 115.923 6.38 115.923 6.58C115.923 6.78 115.983 6.88 116.103 6.88C116.263 6.88 116.343 6.78 116.343 6.58C116.343 6.38 116.263 6.28 116.103 6.28ZM120.723 5.44C120.563 5.44 120.483 5.54 120.483 5.74C120.483 5.9 120.563 5.98 120.723 5.98C120.883 5.98 120.963 5.9 120.963 5.74C120.963 5.54 120.883 5.44 120.723 5.44ZM121.863 5.68H122.163V5.14H121.863V5.68Z" fill="black"/>
<path d="M54.99 70.31C56.0167 70.73 56.53 71.3017 56.53 72.025C56.53 72.865 55.865 73.635 54.535 74.335C53.205 75.0117 51.56 75.35 49.6 75.35C46.31 75.35 43.6733 74.2533 41.69 72.06C39.7067 69.8433 38.715 66.95 38.715 63.38C38.715 59.6467 39.7067 56.73 41.69 54.63C43.6733 52.5067 46.3567 51.445 49.74 51.445C51.56 51.445 53.0883 51.8183 54.325 52.565C55.5617 53.2883 56.18 54.1867 56.18 55.26C56.18 56.2167 55.515 56.8 54.185 57.01C53.7417 55.8667 53.0417 55.015 52.085 54.455C51.1283 53.8717 50.1133 53.58 49.04 53.58C46.8467 53.58 45.05 54.455 43.65 56.205C42.2733 57.9317 41.585 60.09 41.585 62.68C41.585 65.6667 42.285 68.175 43.685 70.205C45.085 72.2117 47.045 73.215 49.565 73.215C50.685 73.215 51.7233 72.97 52.68 72.48C53.66 71.99 54.43 71.2667 54.99 70.31ZM71.6347 65.62C70.8414 63.5433 69.6397 60.0317 68.0297 55.085C67.8197 55.6217 67.283 57.115 66.4197 59.565C65.5564 62.015 64.798 64.0333 64.1447 65.62C65.9647 65.6667 67.388 65.69 68.4147 65.69C69.8614 65.69 70.9347 65.6667 71.6347 65.62ZM67.6797 67.755C67.073 67.755 65.603 67.7317 63.2697 67.685C61.7064 71.6283 60.7264 74.3117 60.3297 75.735C59.5597 75.5717 59.0114 75.385 58.6847 75.175C58.3814 74.965 58.2297 74.685 58.2297 74.335C58.2297 74.055 58.7197 72.7483 59.6997 70.415C60.703 68.0817 61.9164 65.1183 63.3397 61.525C64.763 57.9083 65.883 54.7 66.6997 51.9C67.143 51.83 67.633 51.795 68.1697 51.795C68.753 51.795 69.1614 51.9 69.3947 52.11C69.628 52.2967 69.873 52.81 70.1297 53.65C71.5997 58.3867 72.9064 62.2367 74.0497 65.2C75.8697 69.96 77.1764 73.11 77.9697 74.65C77.3164 75.1167 76.7564 75.35 76.2897 75.35C75.543 75.35 75.0414 75.035 74.7847 74.405C74.3414 73.2617 73.5364 71.0217 72.3697 67.685C69.7564 67.7317 68.193 67.755 67.6797 67.755ZM92.207 72.06C92.8137 72.7367 93.5604 73.075 94.447 73.075C94.727 73.075 95.042 73.04 95.392 72.97C95.602 73.39 95.707 73.74 95.707 74.02C95.707 74.9067 94.832 75.35 93.082 75.35C92.6387 75.35 92.1954 75.245 91.752 75.035C91.3087 74.825 90.8654 74.4633 90.422 73.95C89.9787 73.4367 89.5937 72.9817 89.267 72.585C88.9637 72.1883 88.5787 71.57 88.112 70.73C87.6687 69.89 87.3537 69.295 87.167 68.945C86.9804 68.5717 86.6654 67.9067 86.222 66.95C85.7787 65.97 85.522 65.41 85.452 65.27C84.7987 65.1767 84.472 64.92 84.472 64.5C84.472 64.29 84.5304 63.975 84.647 63.555C85.3004 63.6717 85.8487 63.73 86.292 63.73C87.8554 63.73 89.0804 63.275 89.967 62.365C90.8537 61.4317 91.297 60.1717 91.297 58.585C91.297 56.7183 90.807 55.4233 89.827 54.7C88.847 53.9533 87.342 53.58 85.312 53.58C84.5654 53.58 83.6554 53.6267 82.582 53.72C82.6754 55.0733 82.722 57.4533 82.722 60.86V67.895C82.722 71.045 82.9437 73.355 83.387 74.825C82.967 75.0117 82.4187 75.105 81.742 75.105C81.0654 75.105 80.6104 74.9533 80.377 74.65C80.1437 74.3467 80.027 73.8333 80.027 73.11C80.027 72.7367 80.0387 71.815 80.062 70.345C80.0854 68.875 80.097 67.7317 80.097 66.915V59.915C80.097 56.695 79.9454 54.0117 79.642 51.865C81.3687 51.585 83.107 51.445 84.857 51.445C91.1104 51.445 94.237 53.7667 94.237 58.41C94.237 60.3233 93.712 61.875 92.662 63.065C91.612 64.2317 90.2237 64.9783 88.497 65.305C88.497 65.3283 88.6954 65.76 89.092 66.6C89.4887 67.44 89.757 68 89.897 68.28C90.0604 68.56 90.3054 69.015 90.632 69.645C90.9587 70.275 91.2387 70.7767 91.472 71.15C91.7287 71.5233 91.9737 71.8267 92.207 72.06ZM109.927 56.345C109.53 55.575 108.818 54.945 107.792 54.455C106.765 53.9417 105.703 53.685 104.607 53.685C103.417 53.685 102.413 54.0117 101.597 54.665C100.803 55.3183 100.407 56.275 100.407 57.535C100.407 58.4917 100.698 59.285 101.282 59.915C101.888 60.5217 102.635 60.9533 103.522 61.21C104.408 61.4433 105.377 61.735 106.427 62.085C107.477 62.435 108.445 62.7967 109.332 63.17C110.218 63.5433 110.953 64.185 111.537 65.095C112.143 66.005 112.447 67.1367 112.447 68.49C112.447 69.7033 112.213 70.7767 111.747 71.71C111.28 72.62 110.65 73.3317 109.857 73.845C109.063 74.3583 108.2 74.7433 107.267 75C106.357 75.2333 105.388 75.35 104.362 75.35C102.542 75.35 100.932 75.035 99.5316 74.405C98.1549 73.7517 97.4666 72.97 97.4666 72.06C97.4666 71.7567 97.5599 71.4883 97.7466 71.255C97.9566 70.9983 98.1549 70.8117 98.3416 70.695C98.5283 70.5783 98.8316 70.415 99.2516 70.205C99.6949 71.0683 100.488 71.78 101.632 72.34C102.798 72.8767 103.977 73.145 105.167 73.145C106.473 73.145 107.593 72.795 108.527 72.095C109.46 71.3717 109.927 70.345 109.927 69.015C109.927 67.9183 109.507 67.055 108.667 66.425C107.85 65.7717 106.847 65.2817 105.657 64.955C104.49 64.6283 103.312 64.2667 102.122 63.87C100.955 63.4733 99.9516 62.8083 99.1116 61.875C98.2949 60.9183 97.8866 59.6583 97.8866 58.095C97.8866 55.9483 98.5866 54.3033 99.9866 53.16C101.41 52.0167 103.218 51.445 105.412 51.445C107.022 51.445 108.503 51.725 109.857 52.285C111.233 52.845 111.922 53.615 111.922 54.595C111.922 55.5283 111.257 56.1117 109.927 56.345ZM119.362 74.72C118.965 75.14 118.475 75.35 117.892 75.35C117.309 75.35 116.807 75.14 116.387 74.72C115.967 74.3 115.757 73.775 115.757 73.145C115.757 72.515 115.967 71.99 116.387 71.57C116.807 71.1267 117.309 70.905 117.892 70.905C118.475 70.905 118.965 71.1267 119.362 71.57C119.782 71.99 119.992 72.515 119.992 73.145C119.992 73.775 119.782 74.3 119.362 74.72ZM137.262 71.045C138.172 71.4183 138.627 71.9433 138.627 72.62C138.627 73.32 138.079 73.9383 136.982 74.475C135.886 74.9883 134.509 75.245 132.852 75.245C130.122 75.245 127.929 74.3933 126.272 72.69C124.616 70.9867 123.787 68.7467 123.787 65.97C123.787 63.0533 124.604 60.7783 126.237 59.145C127.894 57.4883 130.146 56.66 132.992 56.66C134.509 56.66 135.781 56.9517 136.807 57.535C137.834 58.095 138.347 58.795 138.347 59.635C138.347 60.4983 137.706 61.035 136.422 61.245C136.096 60.3817 135.547 59.7283 134.777 59.285C134.031 58.8183 133.237 58.585 132.397 58.585C130.694 58.585 129.294 59.2383 128.197 60.545C127.101 61.8517 126.552 63.4733 126.552 65.41C126.552 67.6733 127.101 69.5633 128.197 71.08C129.294 72.5967 130.834 73.355 132.817 73.355C133.704 73.355 134.544 73.1567 135.337 72.76C136.154 72.3633 136.796 71.7917 137.262 71.045ZM150.724 75.245C148.018 75.245 145.859 74.405 144.249 72.725C142.639 71.045 141.834 68.7933 141.834 65.97C141.834 63.1233 142.639 60.86 144.249 59.18C145.859 57.5 148.018 56.66 150.724 56.66C153.454 56.66 155.624 57.5 157.234 59.18C158.868 60.86 159.684 63.1233 159.684 65.97C159.684 68.7933 158.868 71.045 157.234 72.725C155.624 74.405 153.454 75.245 150.724 75.245ZM156.884 66.46C156.884 65.13 156.698 63.8933 156.324 62.75C155.951 61.6067 155.274 60.6267 154.294 59.81C153.338 58.9933 152.159 58.585 150.759 58.585C148.869 58.585 147.364 59.2033 146.244 60.44C145.148 61.6767 144.599 63.2517 144.599 65.165C144.599 66.565 144.786 67.86 145.159 69.05C145.533 70.24 146.198 71.255 147.154 72.095C148.111 72.935 149.301 73.355 150.724 73.355C152.684 73.355 154.201 72.725 155.274 71.465C156.348 70.1817 156.884 68.5133 156.884 66.46ZM182.975 63.1V69.47C182.975 71.92 183.15 73.7283 183.5 74.895C183.197 75.0117 182.718 75.07 182.065 75.07C181.412 75.07 180.968 74.9533 180.735 74.72C180.525 74.4867 180.42 74.09 180.42 73.53C180.42 72.9 180.42 71.15 180.42 68.28C180.443 65.3867 180.455 62.8083 180.455 60.545C178.915 63.7417 177.13 68.5483 175.1 74.965C174.82 75.035 174.447 75.07 173.98 75.07C173.257 75.0233 172.79 74.79 172.58 74.37C172.067 73.32 171.215 71.185 170.025 67.965C168.835 64.745 167.82 62.2717 166.98 60.545V69.47C166.98 71.92 167.167 73.7283 167.54 74.895C167.073 75.0117 166.653 75.07 166.28 75.07C165.673 75.07 165.265 74.9533 165.055 74.72C164.845 74.4867 164.74 74.09 164.74 73.53C164.74 73.25 164.74 72.5383 164.74 71.395C164.763 70.2517 164.775 69.3533 164.775 68.7V61.84C164.775 59.7867 164.6 58.1767 164.25 57.01C164.95 56.87 165.557 56.8 166.07 56.8C167.027 56.8 167.773 57.2433 168.31 58.13C169.057 59.2967 169.792 60.755 170.515 62.505C171.262 64.2317 171.845 65.7133 172.265 66.95C172.685 68.1633 173.245 69.8667 173.945 72.06C175.368 66.39 177.223 61.735 179.51 58.095C180.023 57.2317 180.77 56.8 181.75 56.8C182.31 56.8 182.893 56.87 183.5 57.01C183.15 58.1067 182.975 60.1367 182.975 63.1Z" fill="black"/>
</svg>
